<svg width="229" height="61" viewBox="0 0 229 61" fill="none" xmlns="http://www.w3.org/2000/svg">
<path d="M207.036 15.3614V43.8534C207.036 43.8999 207.045 43.9459 207.063 43.9889C207.081 44.0318 207.107 44.0708 207.139 44.1037C207.172 44.1366 207.211 44.1627 207.254 44.1804C207.297 44.1982 207.343 44.2074 207.39 44.2074H227.908C228.002 44.2074 228.092 44.1701 228.158 44.1037C228.224 44.0373 228.262 43.9473 228.262 43.8534V39.2034C228.262 39.1095 228.224 39.0195 228.158 38.9531C228.092 38.8867 228.002 38.8494 227.908 38.8494H212.758V15.3614C212.759 15.2919 212.738 15.2237 212.699 15.1662C212.66 15.1086 212.605 15.0643 212.54 15.0394C212.497 15.0214 212.452 15.0132 212.406 15.0154H207.39C207.344 15.0143 207.298 15.0224 207.256 15.0394C207.213 15.0559 207.173 15.0812 207.14 15.1135C207.107 15.1458 207.081 15.1846 207.064 15.2274C207.046 15.2697 207.036 15.3153 207.036 15.3614ZM198.338 19.2014C197.005 17.7133 195.368 16.5283 193.538 15.7261C191.708 14.924 189.728 14.5234 187.73 14.5514C179.078 14.5514 172.824 21.5934 172.824 29.7114C172.834 31.7246 173.242 33.716 174.026 35.5706C174.809 37.4252 175.952 39.1064 177.388 40.5174C178.824 41.9272 180.525 43.0386 182.393 43.7877C184.261 44.5367 186.259 44.9084 188.272 44.8814C190.622 44.9354 192.954 44.4614 195.096 43.4942C197.238 42.5271 199.136 41.0916 200.65 39.2934L201.412 38.3934C201.443 38.3536 201.466 38.3081 201.48 38.2594C201.492 38.2104 201.494 38.1596 201.486 38.1098C201.478 38.06 201.46 38.0123 201.434 37.9694C201.406 37.928 201.37 37.8926 201.328 37.8654L197.028 35.2574C196.957 35.2147 196.874 35.1983 196.793 35.2111C196.712 35.2239 196.638 35.2651 196.584 35.3274L195.974 36.0214C195.013 37.1051 193.824 37.9628 192.492 38.533C191.161 39.1032 189.719 39.3717 188.272 39.3194C186.193 39.3433 184.162 38.6931 182.484 37.4661C180.805 36.2392 179.57 34.5015 178.962 32.5134H201.752C201.842 32.514 201.929 32.4796 201.995 32.4173C202.061 32.355 202.1 32.2698 202.104 32.1794L202.16 31.1954C202.382 26.3214 200.962 22.1634 198.336 19.2014H198.338ZM178.462 32.1514V32.2434C178.482 32.2074 178.47 32.1794 178.462 32.1514ZM178.898 26.9254C179.384 24.9559 180.521 23.2079 182.123 21.9639C183.726 20.7199 185.701 20.0524 187.73 20.0694C191.666 20.0694 194.998 22.6694 196.044 26.9254H178.898ZM156.766 50.1974L171.404 15.6314C171.426 15.5777 171.435 15.5193 171.429 15.4613C171.424 15.4034 171.404 15.3478 171.372 15.2993C171.339 15.2509 171.296 15.2111 171.244 15.1836C171.193 15.156 171.136 15.1415 171.078 15.1414H165.682C165.612 15.1393 165.544 15.1589 165.486 15.1974C165.427 15.2347 165.381 15.2901 165.356 15.3554L157.348 34.2254L148.662 15.3754C148.633 15.3141 148.588 15.262 148.532 15.2249C148.475 15.1878 148.409 15.1672 148.342 15.1654H142.912C142.852 15.1682 142.795 15.1848 142.743 15.214C142.691 15.2431 142.647 15.284 142.614 15.3334C142.587 15.3845 142.573 15.4416 142.574 15.4994C142.574 15.5594 142.586 15.6154 142.614 15.6654L154.39 41.3174L150.732 49.9554C150.712 50.0089 150.704 50.0665 150.71 50.1234C150.716 50.1804 150.735 50.2351 150.766 50.2834C150.798 50.3314 150.842 50.3706 150.894 50.3974C150.944 50.4252 151 50.4397 151.058 50.4394H156.448C156.519 50.4366 156.588 50.4119 156.645 50.3686C156.702 50.3253 156.744 50.2655 156.766 50.1974ZM137.932 44.2074C137.978 44.2076 138.024 44.1985 138.066 44.1806C138.109 44.1628 138.148 44.1365 138.18 44.1034C138.213 44.0709 138.239 44.0319 138.257 43.989C138.275 43.946 138.284 43.8999 138.284 43.8534V15.5214C138.284 15.4279 138.247 15.3381 138.181 15.2718C138.115 15.2055 138.025 15.1679 137.932 15.1674H132.858C132.811 15.1674 132.765 15.1766 132.722 15.1943C132.679 15.2121 132.64 15.2382 132.607 15.2711C132.575 15.304 132.548 15.343 132.531 15.3859C132.513 15.4289 132.504 15.4749 132.504 15.5214V43.8514C132.504 43.9454 132.544 44.0354 132.608 44.1014C132.64 44.1346 132.679 44.161 132.722 44.1789C132.765 44.1967 132.811 44.2058 132.858 44.2054H137.928L137.932 44.2074ZM104.168 15.1674H99.3178C99.2597 15.1665 99.2024 15.1809 99.1515 15.2089C99.1007 15.237 99.058 15.2778 99.0278 15.3274C98.994 15.3737 98.9732 15.4283 98.9678 15.4854C98.9625 15.5427 98.9714 15.6004 98.9938 15.6534L110.698 43.9914C110.725 44.0554 110.77 44.1101 110.828 44.1485C110.886 44.1869 110.954 44.2074 111.024 44.2074H115.534C115.603 44.2078 115.671 44.1874 115.729 44.149C115.787 44.1105 115.831 44.0556 115.858 43.9914L128.198 15.6314C128.225 15.5797 128.24 15.522 128.24 15.4634C128.241 15.4051 128.225 15.3476 128.196 15.2974C128.165 15.2482 128.122 15.2077 128.072 15.1797C128.021 15.1517 127.964 15.1371 127.906 15.1374H122.432C122.364 15.1383 122.297 15.159 122.241 15.197C122.184 15.235 122.14 15.2887 122.114 15.3514L113.31 35.6654L104.49 15.3794C104.462 15.316 104.417 15.2618 104.36 15.2235C104.302 15.1852 104.235 15.1643 104.166 15.1634L104.168 15.1674ZM93.6797 17.5934C91.5997 15.5754 88.7398 14.5494 85.3678 14.5494C81.2983 14.5368 77.3704 16.0422 74.3518 18.7714L73.3557 19.6034C73.316 19.6379 73.2841 19.6807 73.2624 19.7286C73.2406 19.7766 73.2295 19.8287 73.2297 19.8814C73.2317 19.9346 73.2458 19.9866 73.2712 20.0335C73.2965 20.0803 73.3323 20.1207 73.3757 20.1514L77.3958 23.1194C77.4574 23.1622 77.5307 23.1852 77.6057 23.1852C77.6808 23.1852 77.7541 23.1622 77.8157 23.1194L78.4677 22.6334C80.2337 21.3434 82.1798 20.0674 85.3958 20.0674C87.7438 20.0674 89.0738 20.8174 89.8638 21.7674C90.7238 22.9414 91.1557 24.3754 91.0837 25.8274V26.1474C87.3697 26.1474 82.8798 26.1474 79.2578 27.1814C77.3482 27.636 75.5949 28.5931 74.1797 29.9534C73.4638 30.7186 72.9067 31.6181 72.5404 32.5999C72.1741 33.5816 72.006 34.6263 72.0458 35.6734C72.0458 41.2194 76.9717 44.8794 82.9697 44.8794C85.8897 44.9594 88.7497 44.0394 91.0817 42.2794V43.8534C91.0817 43.9473 91.119 44.0373 91.1854 44.1037C91.2518 44.1701 91.3419 44.2074 91.4358 44.2074H96.4498C96.5436 44.2074 96.6337 44.1701 96.7001 44.1037C96.7665 44.0373 96.8038 43.9473 96.8038 43.8534V25.8314C96.7978 22.4614 95.7297 19.6114 93.6797 17.5954V17.5934ZM91.0758 34.6534C90.4238 36.3254 88.1658 39.3054 82.9638 39.3054C81.6813 39.3373 80.4173 38.9954 79.3258 38.3214C78.8743 38.0443 78.5028 37.6544 78.2479 37.1901C77.9929 36.7257 77.8633 36.203 77.8717 35.6734C77.8483 35.2433 77.9248 34.8137 78.0952 34.4182C78.2656 34.0226 78.5252 33.6719 78.8538 33.3934C79.765 32.7328 80.8236 32.3044 81.9377 32.1454C84.6062 31.7484 87.3062 31.6044 90.0018 31.7154H91.0758V34.6554V34.6534Z" fill="#D3D3D3"/>
<path fill-rule="evenodd" clip-rule="evenodd" d="M31.8639 5.30738C31.3592 4.96344 30.7626 4.77948 30.1519 4.77948C29.5411 4.77948 28.9446 4.96344 28.4399 5.30738L12.8099 15.9154L12.6859 16.0054L9.27587 18.3174C8.91189 18.6401 8.62712 19.0424 8.44364 19.4929C8.26017 19.9434 8.18291 20.4302 8.21787 20.9154C8.25159 21.3997 8.39563 21.8699 8.63898 22.2901C8.88232 22.7102 9.21852 23.0691 9.62187 23.3394L16.0499 27.5714L26.1499 20.7114C27.3292 19.9065 28.7238 19.4758 30.1516 19.4754C31.5794 19.4751 32.9741 19.9051 34.1539 20.7094L42.0019 26.0434V12.1914L31.8639 5.30938V5.30738ZM40.3679 29.9714L31.8719 24.2074C31.3672 23.8634 30.7706 23.6795 30.1599 23.6795C29.5491 23.6795 28.9526 23.8634 28.4479 24.2074L19.8279 30.0534L28.4119 35.7054C28.9163 36.0498 29.513 36.2341 30.1239 36.2341C30.7347 36.2341 31.3314 36.0498 31.8359 35.7054L40.0359 30.1414L40.3679 29.9714ZM46.1319 29.2314C46.8359 29.4394 47.5039 29.7534 48.1119 30.1634L59.1559 37.6694C59.4407 37.8631 59.6736 38.1238 59.834 38.4286C59.9944 38.7334 60.0775 39.0729 60.0759 39.4174V58.3114C60.0778 58.6896 59.9776 59.0614 59.7857 59.3874C59.5938 59.7134 59.3175 59.9815 58.9859 60.1634C58.6568 60.3416 58.2851 60.4261 57.9113 60.4078C57.5375 60.3895 57.1759 60.2689 56.8659 60.0594L45.8239 52.5534C45.3173 52.2106 44.7196 52.0274 44.1079 52.0274C43.4962 52.0274 42.8985 52.2106 42.3919 52.5534L34.1619 58.1174C32.9818 58.9197 31.5878 59.3487 30.1609 59.3487C28.7339 59.3487 27.3399 58.9197 26.1599 58.1174L3.47987 42.7214C2.48443 42.0459 1.67051 41.1358 1.10987 40.0714C0.547116 39.0043 0.253929 37.8158 0.25587 36.6094V23.3254C0.253839 22.1224 0.545106 20.9371 1.10444 19.8721C1.66378 18.8071 2.47433 17.8945 3.46587 17.2134L6.82387 14.9374C6.98387 14.8054 7.15387 14.6774 7.33187 14.5594L10.4019 12.4994L26.1519 1.81938C27.3268 1.01856 28.7157 0.590079 30.1376 0.589722C31.5595 0.589365 32.9485 1.01715 34.1239 1.81738L45.1679 9.32138C45.4516 9.51618 45.6833 9.77756 45.8426 10.0826C46.002 10.3877 46.0841 10.7272 46.0819 11.0714L46.1319 29.2314ZM4.41187 22.8954C4.39987 23.0385 4.39987 23.1823 4.41187 23.3254V36.6094C4.40745 37.1251 4.5308 37.6339 4.7709 38.0904C5.011 38.5469 5.36039 38.9368 5.78787 39.2254L28.4479 54.6654C28.9526 55.0093 29.5491 55.1933 30.1599 55.1933C30.7706 55.1933 31.3672 55.0093 31.8719 54.6654L40.0719 49.1014C41.2521 48.2986 42.6465 47.8694 44.0739 47.8694C45.5012 47.8694 46.8956 48.2986 48.0759 49.1014L55.9319 54.4354V40.5354L45.7859 33.6534C45.2801 33.3094 44.6825 33.1255 44.0709 33.1255C43.4592 33.1255 42.8617 33.3094 42.3559 33.6534L34.1619 39.2174C32.9838 40.018 31.5923 40.446 30.1679 40.446C28.7435 40.446 27.352 40.018 26.1739 39.2174L7.38387 26.8674C5.95561 25.935 4.90238 24.5284 4.40987 22.8954H4.41187Z" fill="#D3D3D3"/>
</svg>
