<svg width="90" height="90" viewBox="0 0 90 90" fill="none" xmlns="http://www.w3.org/2000/svg">
<g filter="url(#filter0_d_14_116)">
<rect x="15" y="11" width="60" height="60" rx="15" fill="#1E1E1E"/>
<path d="M60.9364 32.6H49.8839V29.4H60.9364V32.6ZM63.6617 48.6C62.9638 50.6752 60.458 53.4 55.6075 53.4C50.7539 53.4 46.8224 50.6336 46.8224 44.32C46.8224 38.064 50.4934 34.848 55.4528 34.848C60.3191 34.848 63.2906 37.6992 63.9395 41.9296C64.0627 42.7392 64.1116 43.8304 64.0895 45.3536H51.4155C51.6207 50.4912 56.9149 50.6528 58.6596 48.6H63.6617ZM51.526 42.2H59.3654C59.1996 39.7248 57.5717 38.6496 55.4544 38.6496C53.1397 38.6496 51.8591 39.8784 51.526 42.2ZM36.4093 53.3808H26.2V29.4336H37.1783C45.8245 29.5632 45.9887 38.144 41.4729 40.4832C46.9376 42.4992 47.1208 53.3808 36.4093 53.3808ZM30.9367 39H36.5956C40.5556 39 41.184 34.2 36.103 34.2H30.9367V39ZM36.2909 43.8H30.9367V48.6256H36.2119C41.0356 48.6256 40.7403 43.8 36.2909 43.8Z" fill="white"/>
</g>
<defs>
<filter id="filter0_d_14_116" x="0" y="0" width="90" height="90" filterUnits="userSpaceOnUse" color-interpolation-filters="sRGB">
<feFlood flood-opacity="0" result="BackgroundImageFix"/>
<feColorMatrix in="SourceAlpha" type="matrix" values="0 0 0 0 0 0 0 0 0 0 0 0 0 0 0 0 0 0 127 0" result="hardAlpha"/>
<feOffset dy="4"/>
<feGaussianBlur stdDeviation="7.5"/>
<feComposite in2="hardAlpha" operator="out"/>
<feColorMatrix type="matrix" values="0 0 0 0 0.0862745 0 0 0 0 0.0901961 0 0 0 0 0.0980392 0 0 0 0.25 0"/>
<feBlend mode="normal" in2="BackgroundImageFix" result="effect1_dropShadow_14_116"/>
<feBlend mode="normal" in="SourceGraphic" in2="effect1_dropShadow_14_116" result="shape"/>
</filter>
</defs>
</svg>
