<svg width="90" height="90" viewBox="0 0 90 90" fill="none" xmlns="http://www.w3.org/2000/svg">
<g filter="url(#filter0_d_14_112)">
<rect x="15" y="11" width="60" height="60" rx="15" fill="#1E1E1E"/>
<path d="M56.4881 31.3905C54.4482 30.4705 52.2617 29.7906 49.9752 29.4039C49.9548 29.4 49.9337 29.4025 49.9149 29.4111C49.896 29.4197 49.8803 29.434 49.8699 29.4519C49.5899 29.9439 49.2779 30.5852 49.0593 31.0918C46.6342 30.7295 44.1688 30.7295 41.7437 31.0918C41.5002 30.5303 41.2256 29.9829 40.9211 29.4519C40.9108 29.4338 40.8952 29.4192 40.8764 29.4101C40.8576 29.4011 40.8364 29.398 40.8158 29.4013C38.5306 29.7879 36.3441 30.4679 34.3029 31.3891C34.2853 31.3965 34.2704 31.4091 34.2602 31.4251C30.1112 37.5247 28.9739 43.4737 29.5325 49.3479C29.5341 49.3623 29.5386 49.3763 29.5457 49.3889C29.5528 49.4015 29.5624 49.4125 29.5739 49.4213C31.9956 51.1844 34.6966 52.5275 37.564 53.3944C37.584 53.4005 37.6054 53.4005 37.6254 53.3943C37.6453 53.3881 37.663 53.3761 37.676 53.3597C38.292 52.5331 38.8413 51.6598 39.3106 50.7425C39.3386 50.6892 39.3119 50.6252 39.2559 50.6039C38.3946 50.2795 37.5601 49.8881 36.7601 49.4333C36.7457 49.4251 36.7336 49.4134 36.7248 49.3994C36.716 49.3853 36.7109 49.3693 36.7098 49.3528C36.7088 49.3363 36.7118 49.3198 36.7187 49.3047C36.7257 49.2897 36.7362 49.2766 36.7494 49.2666C36.9174 49.1426 37.0854 49.0133 37.2454 48.884C37.2598 48.8724 37.2771 48.8649 37.2955 48.8626C37.3138 48.8602 37.3325 48.863 37.3494 48.8706C42.585 51.2225 48.2553 51.2225 53.4296 48.8706C53.4465 48.8626 53.4654 48.8594 53.484 48.8615C53.5026 48.8637 53.5203 48.871 53.535 48.8826C53.6949 49.0133 53.8616 49.1426 54.0309 49.2666C54.0443 49.2764 54.055 49.2893 54.0621 49.3042C54.0692 49.3191 54.0725 49.3356 54.0717 49.3521C54.0709 49.3686 54.0661 49.3847 54.0576 49.3988C54.049 49.413 54.0371 49.4248 54.0229 49.4333C53.2256 49.8919 52.3964 50.2799 51.5258 50.6025C51.5124 50.6074 51.5002 50.615 51.49 50.625C51.4798 50.6349 51.4719 50.6469 51.4667 50.6602C51.4616 50.6734 51.4593 50.6876 51.46 50.7018C51.4608 50.716 51.4646 50.7299 51.4711 50.7425C51.9511 51.6585 52.5004 52.5304 53.1043 53.3584C53.1169 53.3753 53.1344 53.388 53.1544 53.3947C53.1745 53.4014 53.1961 53.4017 53.2163 53.3957C56.0886 52.5313 58.7941 51.1875 61.2185 49.4213C61.2303 49.413 61.2402 49.4023 61.2476 49.3899C61.2549 49.3775 61.2595 49.3636 61.2611 49.3493C61.9277 42.5577 60.1439 36.6568 56.5294 31.4278C56.5206 31.4108 56.5059 31.3976 56.4881 31.3905ZM40.0932 45.7709C38.5173 45.7709 37.2174 44.3456 37.2174 42.5977C37.2174 40.8485 38.4919 39.4246 40.0932 39.4246C41.7064 39.4246 42.9943 40.8605 42.969 42.5977C42.969 44.3469 41.6944 45.7709 40.0932 45.7709ZM50.7258 45.7709C49.1486 45.7709 47.85 44.3456 47.85 42.5977C47.85 40.8485 49.1232 39.4246 50.7258 39.4246C52.339 39.4246 53.627 40.8605 53.6016 42.5977C53.6016 44.3469 52.3404 45.7709 50.7258 45.7709Z" fill="white"/>
</g>
<defs>
<filter id="filter0_d_14_112" x="0" y="0" width="90" height="90" filterUnits="userSpaceOnUse" color-interpolation-filters="sRGB">
<feFlood flood-opacity="0" result="BackgroundImageFix"/>
<feColorMatrix in="SourceAlpha" type="matrix" values="0 0 0 0 0 0 0 0 0 0 0 0 0 0 0 0 0 0 127 0" result="hardAlpha"/>
<feOffset dy="4"/>
<feGaussianBlur stdDeviation="7.5"/>
<feComposite in2="hardAlpha" operator="out"/>
<feColorMatrix type="matrix" values="0 0 0 0 0.0862745 0 0 0 0 0.0901961 0 0 0 0 0.0980392 0 0 0 0.25 0"/>
<feBlend mode="normal" in2="BackgroundImageFix" result="effect1_dropShadow_14_112"/>
<feBlend mode="normal" in="SourceGraphic" in2="effect1_dropShadow_14_112" result="shape"/>
</filter>
</defs>
</svg>
