<svg width="227" height="49" viewBox="0 0 227 49" fill="none" xmlns="http://www.w3.org/2000/svg">
<path d="M0 46.9395V2.06049H13.3355V46.9395H0Z" fill="#D3D3D3"/>
<path d="M21.2876 46.9395V2.06049H38.2134L47.7663 31.3601L57.255 2.06049H73.7961V46.9395H60.9735V18.4734L52.7671 46.9395H42.8937L34.1102 18.3452V46.9395H21.2876Z" fill="#D3D3D3"/>
<path d="M130.495 22.2561V31.296H126.968C125.729 36.767 123.079 40.977 119.018 43.9262C115.001 46.8754 109.765 48.35 103.311 48.35C96.0873 48.35 90.2103 46.1274 85.6796 41.6823C81.1917 37.2371 78.9478 31.5524 78.9478 24.6282C78.9905 17.6186 81.2558 11.8698 85.7437 7.38188C90.2744 2.89398 96.3437 0.650024 103.952 0.650024C110.491 0.650024 115.834 2.10325 119.98 5.0097C124.169 7.91615 126.434 11.6988 126.776 16.3577H112.286C111.945 14.8617 111.026 13.6649 109.53 12.7674C108.076 11.827 106.238 11.3569 104.016 11.3569C100.468 11.3569 97.7115 12.5323 95.7453 14.8831C93.8219 17.1912 92.8603 20.2899 92.8603 24.1795C92.8603 27.9835 93.8647 31.0823 95.8736 33.4758C97.8824 35.8266 100.554 37.002 103.888 37.002C108.846 37.002 111.966 35.1 113.248 31.296H105.875V22.2561H130.495Z" fill="#D3D3D3"/>
<path d="M141.992 31.1662C146.001 31.1662 149.251 27.9166 149.251 23.9081C149.251 19.8996 146.001 16.65 141.992 16.65C137.984 16.65 134.734 19.8996 134.734 23.9081C134.734 27.9166 137.984 31.1662 141.992 31.1662Z" fill="#D3D3D3"/>
<path d="M156.451 46.5291V1.65002H169.787V35.0529H181.416V46.5291H156.451Z" fill="#D3D3D3"/>
<path d="M211.382 1.65002H226.256L204.009 46.5291H189.07L196.764 30.7573L181.697 1.65002H197.405L204.521 17.6783L211.382 1.65002Z" fill="#D3D3D3"/>
</svg>
