<svg width="90" height="90" viewBox="0 0 90 90" fill="none" xmlns="http://www.w3.org/2000/svg">
<g filter="url(#filter0_d_14_114)">
<rect x="15" y="11" width="60" height="60" rx="15" fill="#1E1E1E"/>
<path d="M37.7099 54.2L32.2366 54.2L32.2366 36.5742L37.7099 36.5742L37.7099 54.2ZM34.9699 34.1699C33.22 34.1699 31.8 32.7198 31.8 30.9699C31.8 30.1292 32.134 29.3229 32.7285 28.7284C33.323 28.134 34.1292 27.8 34.9699 27.8C35.8106 27.8 36.6169 28.134 37.2114 28.7284C37.8059 29.3229 38.1398 30.1292 38.1398 30.9699C38.1398 32.7198 36.7199 34.1699 34.9699 34.1699ZM58.1944 54.2L52.7334 54.2L52.7334 45.62C52.7334 43.5749 52.6919 40.9528 49.8878 40.9528C47.0423 40.9528 46.6057 43.1742 46.6057 45.4729L46.6057 54.2L41.1381 54.2L41.1381 36.5742L46.387 36.5742L46.387 38.9785L46.4634 38.9785C47.1941 37.5934 48.9789 36.132 51.6415 36.132C57.1808 36.132 58.1991 39.7799 58.1991 44.5178L58.1991 54.2H58.1944Z" fill="white"/>
</g>
<defs>
<filter id="filter0_d_14_114" x="0" y="0" width="90" height="90" filterUnits="userSpaceOnUse" color-interpolation-filters="sRGB">
<feFlood flood-opacity="0" result="BackgroundImageFix"/>
<feColorMatrix in="SourceAlpha" type="matrix" values="0 0 0 0 0 0 0 0 0 0 0 0 0 0 0 0 0 0 127 0" result="hardAlpha"/>
<feOffset dy="4"/>
<feGaussianBlur stdDeviation="7.5"/>
<feComposite in2="hardAlpha" operator="out"/>
<feColorMatrix type="matrix" values="0 0 0 0 0.0862745 0 0 0 0 0.0901961 0 0 0 0 0.0980392 0 0 0 0.25 0"/>
<feBlend mode="normal" in2="BackgroundImageFix" result="effect1_dropShadow_14_114"/>
<feBlend mode="normal" in="SourceGraphic" in2="effect1_dropShadow_14_114" result="shape"/>
</filter>
</defs>
</svg>
