<svg width="90" height="90" viewBox="0 0 90 90" fill="none" xmlns="http://www.w3.org/2000/svg">
<g filter="url(#filter0_d_14_110)">
<rect x="15" y="11" width="60" height="60" rx="15" fill="#1E1E1E"/>
<path fill-rule="evenodd" clip-rule="evenodd" d="M33.7778 34.2962C33.8155 33.9246 33.6734 33.5581 33.3969 33.3087L30.5809 29.9076V29.4L39.3281 29.4L46.089 44.2575L52.0328 29.4L60.3714 29.4V29.9076L57.9627 32.2216C57.7553 32.3803 57.6522 32.6411 57.6949 32.8993L57.6949 49.902C57.6522 50.1589 57.7553 50.4197 57.9627 50.5784L60.3148 52.8924V53.4L48.4826 53.4V52.8924L50.9202 50.5217C51.159 50.2824 51.159 50.2118 51.159 49.8453L51.159 36.1026L44.3843 53.3446L43.4691 53.3446L35.5805 36.1026L35.5805 47.6585C35.5152 48.1435 35.6761 48.6335 36.0168 48.9837L39.186 52.8357V53.3446L30.2 53.3446L30.2 52.8357L33.3692 48.9837C33.7086 48.6322 33.8595 48.1397 33.7778 47.6585L33.7778 34.2962Z" fill="white"/>
</g>
<defs>
<filter id="filter0_d_14_110" x="0" y="0" width="90" height="90" filterUnits="userSpaceOnUse" color-interpolation-filters="sRGB">
<feFlood flood-opacity="0" result="BackgroundImageFix"/>
<feColorMatrix in="SourceAlpha" type="matrix" values="0 0 0 0 0 0 0 0 0 0 0 0 0 0 0 0 0 0 127 0" result="hardAlpha"/>
<feOffset dy="4"/>
<feGaussianBlur stdDeviation="7.5"/>
<feComposite in2="hardAlpha" operator="out"/>
<feColorMatrix type="matrix" values="0 0 0 0 0.0862745 0 0 0 0 0.0901961 0 0 0 0 0.0980392 0 0 0 0.25 0"/>
<feBlend mode="normal" in2="BackgroundImageFix" result="effect1_dropShadow_14_110"/>
<feBlend mode="normal" in="SourceGraphic" in2="effect1_dropShadow_14_110" result="shape"/>
</filter>
</defs>
</svg>
