<svg width="90" height="90" viewBox="0 0 90 90" fill="none" xmlns="http://www.w3.org/2000/svg">
<g filter="url(#filter0_d_54_39)">
<rect x="15" y="71" width="60" height="60" rx="15" transform="rotate(-90 15 71)" fill="#1E1E1E"/>
<path d="M61.5 30.7545C60.2589 31.3044 58.9256 31.676 57.5239 31.844C58.9702 30.9786 60.0522 29.6166 60.568 28.0121C59.2092 28.8192 57.7221 29.3873 56.1713 29.6917C55.1284 28.5782 53.7471 27.8402 52.2418 27.5921C50.7364 27.3441 49.1913 27.6 47.8464 28.3201C46.5014 29.0402 45.4318 30.1842 44.8036 31.5745C44.1754 32.9648 44.0238 34.5236 44.3723 36.0089C41.6191 35.8706 38.9256 35.155 36.4668 33.9085C34.008 32.6619 31.8388 30.9123 30.1 28.7731C29.5054 29.7987 29.1636 30.9878 29.1636 32.2543C29.1629 33.3943 29.4436 34.5169 29.9809 35.5224C30.5181 36.528 31.2953 37.3853 32.2434 38.0185C31.1438 37.9835 30.0686 37.6864 29.1071 37.1519L29.1071 37.2411C29.107 38.8401 29.6601 40.3898 30.6725 41.6274C31.685 42.865 33.0944 43.7142 34.6617 44.0309C33.6417 44.307 32.5724 44.3476 31.5344 44.1498C31.9765 45.5257 32.8379 46.7288 33.9978 47.5907C35.1578 48.4527 36.5582 48.9303 38.0031 48.9568C35.5503 50.8823 32.5211 51.9268 29.4029 51.9222C28.8505 51.9223 28.2986 51.8901 27.75 51.8256C30.9152 53.8607 34.5998 54.9408 38.3628 54.9366C51.1012 54.9366 58.065 44.3862 58.065 35.236C58.065 34.9387 58.0575 34.6384 58.0441 34.3411C59.3987 33.3616 60.5679 32.1486 61.497 30.7589L61.5 30.7545Z" fill="white"/>
</g>
<defs>
<filter id="filter0_d_54_39" x="0" y="0" width="90" height="90" filterUnits="userSpaceOnUse" color-interpolation-filters="sRGB">
<feFlood flood-opacity="0" result="BackgroundImageFix"/>
<feColorMatrix in="SourceAlpha" type="matrix" values="0 0 0 0 0 0 0 0 0 0 0 0 0 0 0 0 0 0 127 0" result="hardAlpha"/>
<feOffset dy="4"/>
<feGaussianBlur stdDeviation="7.5"/>
<feComposite in2="hardAlpha" operator="out"/>
<feColorMatrix type="matrix" values="0 0 0 0 0.0862745 0 0 0 0 0.0901961 0 0 0 0 0.0980392 0 0 0 0.25 0"/>
<feBlend mode="normal" in2="BackgroundImageFix" result="effect1_dropShadow_54_39"/>
<feBlend mode="normal" in="SourceGraphic" in2="effect1_dropShadow_54_39" result="shape"/>
</filter>
</defs>
</svg>
